<svg width="30" height="30" viewBox="0 0 32 32" fill="none" xmlns="http://www.w3.org/2000/svg">
<path d="M23.7817 21.4713C24.5014 20.9157 25.3455 20.6018 26.2164 20.566C27.0873 20.5301 27.9495 20.7737 28.703 21.2685C29.4566 21.7634 30.0708 22.4894 30.4746 23.3624C30.8784 24.2354 31.0553 25.2198 30.9849 26.2017C29.139 26.931 27.1783 27.2148 25.2294 27.0348C25.2234 25.0637 24.7213 23.1335 23.7817 21.473C22.9477 19.9944 21.7972 18.7774 20.4367 17.9348C19.0762 17.0921 17.5497 16.651 15.9984 16.6522C14.4474 16.6513 12.9212 17.0925 11.561 17.9352C10.2008 18.7778 9.05058 19.9946 8.21671 21.473M25.2278 27.033L25.2294 27.0869C25.2294 27.4782 25.2109 27.8643 25.1725 28.2452C22.3806 30.0558 19.2171 31.0058 15.9984 31C12.6599 31 9.52597 29.9982 6.82438 28.2452C6.78482 27.8427 6.76582 27.438 6.76745 27.033M6.76745 27.033C4.81915 27.2196 2.85954 26.9368 1.01502 26.2035C0.944792 25.2218 1.12179 24.2377 1.52554 23.365C1.92929 22.4923 2.54331 21.7666 3.29661 21.2718C4.04991 20.777 4.91171 20.5333 5.78238 20.5689C6.65305 20.6045 7.49702 20.918 8.21671 21.473M6.76745 27.033C6.77298 25.0621 7.27765 23.1337 8.21671 21.473M20.6139 6.21739C20.6139 7.60112 20.1276 8.92819 19.2621 9.90664C18.3965 10.8851 17.2225 11.4348 15.9984 11.4348C14.7743 11.4348 13.6003 10.8851 12.7348 9.90664C11.8692 8.92819 11.3829 7.60112 11.3829 6.21739C11.3829 4.83365 11.8692 3.50659 12.7348 2.52814C13.6003 1.54969 14.7743 1 15.9984 1C17.2225 1 18.3965 1.54969 19.2621 2.52814C20.1276 3.50659 20.6139 4.83365 20.6139 6.21739ZM29.8449 11.4348C29.8449 11.9486 29.7553 12.4575 29.5814 12.9322C29.4074 13.407 29.1524 13.8384 28.831 14.2017C28.5095 14.5651 28.1279 14.8533 27.708 15.05C27.288 15.2466 26.8378 15.3478 26.3833 15.3478C25.9287 15.3478 25.4785 15.2466 25.0586 15.05C24.6386 14.8533 24.257 14.5651 23.9355 14.2017C23.6141 13.8384 23.3591 13.407 23.1851 12.9322C23.0112 12.4575 22.9216 11.9486 22.9216 11.4348C22.9216 10.397 23.2863 9.40167 23.9355 8.66784C24.5847 7.934 25.4652 7.52173 26.3833 7.52173C27.3013 7.52173 28.1818 7.934 28.831 8.66784C29.4802 9.40167 29.8449 10.397 29.8449 11.4348ZM9.07519 11.4348C9.07519 11.9486 8.98566 12.4575 8.81169 12.9322C8.63773 13.407 8.38275 13.8384 8.06131 14.2017C7.73987 14.5651 7.35827 14.8533 6.93828 15.05C6.5183 15.2466 6.06817 15.3478 5.61358 15.3478C5.159 15.3478 4.70886 15.2466 4.28888 15.05C3.8689 14.8533 3.48729 14.5651 3.16585 14.2017C2.84441 13.8384 2.58943 13.407 2.41547 12.9322C2.24151 12.4575 2.15197 11.9486 2.15197 11.4348C2.15197 10.397 2.51667 9.40167 3.16585 8.66784C3.81503 7.934 4.69551 7.52173 5.61358 7.52173C6.53166 7.52173 7.41213 7.934 8.06131 8.66784C8.71049 9.40167 9.07519 10.397 9.07519 11.4348Z" stroke="#1E77BD" stroke-width="1.5" stroke-linecap="round" stroke-linejoin="round"/>
</svg>
