<svg width="30" height="30"  viewBox="0 0 32 32" fill="none" xmlns="http://www.w3.org/2000/svg">
<path  d="M15.3557 21.1219L24.3227 30.0889C25.0917 30.8333 26.1225 31.2457 27.1928 31.237C28.2632 31.2283 29.2872 30.7993 30.044 30.0424C30.8008 29.2856 31.2299 28.2616 31.2386 27.1913C31.2473 26.121 30.8349 25.0901 30.0904 24.3211L21.0512 15.2818M15.3557 21.1219L19.1947 16.4615C19.6823 15.8709 20.3329 15.4987 21.0527 15.2834C21.8987 15.0311 22.8415 14.9942 23.7336 15.068C24.9361 15.1713 26.1447 14.9583 27.2395 14.4502C28.3343 13.9421 29.2771 13.1566 29.9746 12.1716C30.672 11.1865 31.0997 10.0362 31.2153 8.83485C31.3308 7.63346 31.1302 6.42274 30.6334 5.32282L25.5947 10.3631C24.7517 10.1681 23.9803 9.74042 23.3685 9.12859C22.7567 8.51676 22.3289 7.74543 22.134 6.90242L27.1727 1.86369C26.0728 1.36684 24.8621 1.16624 23.6607 1.28181C22.4593 1.39738 21.309 1.8251 20.324 2.52252C19.3389 3.21994 18.5534 4.16282 18.0453 5.2576C17.5372 6.35237 17.3242 7.56098 17.4275 8.76349C17.5675 10.4185 17.3183 12.2457 16.0371 13.3008L15.8802 13.4315M15.3557 21.1219L8.19597 29.8166C7.84897 30.2396 7.41725 30.5853 6.92859 30.8313C6.43994 31.0774 5.90518 31.2184 5.35874 31.2453C4.81229 31.2722 4.26627 31.1843 3.75582 30.9875C3.24536 30.7906 2.78178 30.489 2.39492 30.1021C2.00806 29.7153 1.70649 29.2517 1.50961 28.7413C1.31273 28.2308 1.22491 27.6848 1.25181 27.1383C1.2787 26.5919 1.41972 26.0571 1.66577 25.5685C1.91182 25.0798 2.25746 24.6481 2.68044 24.3011L13.1963 15.6417L6.87938 9.32488H4.71224L1.25157 3.55711L3.55868 1.25L9.32646 4.71066V6.87781L15.8787 13.43L13.1947 15.6402M26.053 26.0514L22.0156 22.014M5.27671 27.205H5.28901V27.2173H5.27671V27.205Z" stroke="#1E77BD" stroke-width="1.5" stroke-linecap="round" stroke-linejoin="round"/>
</svg>
